<?xml version="1.0" ?><svg id="Layer_1" style="enable-background:new 0 0 64 64;" version="1.1" viewBox="0 0 64 64" xml:space="preserve" xmlns="http://www.w3.org/2000/svg" xmlns:xlink="http://www.w3.org/1999/xlink"><style type="text/css">
	.st0{fill:#D9DCE1;}
	.st1{fill:#56AAFF;}
	.st2{fill:#0478ED;}
	.st3{fill:none;stroke:#FFFFFF;stroke-width:4;stroke-linecap:round;stroke-linejoin:round;stroke-miterlimit:10;}
	.st4{fill:#FFFFFF;}
	.st5{fill:none;stroke:#FFFFFF;stroke-width:2.2357;stroke-linecap:square;stroke-miterlimit:10;}
	.st6{fill:none;stroke:#0478ED;stroke-width:2;stroke-miterlimit:10;stroke-dasharray:2,2;}
	.st7{fill:none;stroke:#56AAFF;stroke-width:5;stroke-miterlimit:10;}
	.st8{fill:none;stroke:#0478ED;stroke-width:3;stroke-miterlimit:10;}
	.st9{fill:none;stroke:#D9DCE1;stroke-width:3;stroke-miterlimit:10;}
	.st10{fill:none;stroke:#56AAFF;stroke-width:4;stroke-linecap:round;stroke-miterlimit:10;}
	.st11{fill:none;stroke:#0478ED;stroke-width:4;stroke-miterlimit:10;}
	.st12{fill:none;stroke:#FFFFFF;stroke-width:2;stroke-miterlimit:10;}
	.st13{fill:none;stroke:#D9DCE1;stroke-width:4;stroke-miterlimit:10;}
	.st14{fill:none;stroke:#D9DCE1;stroke-width:6;stroke-linecap:round;stroke-miterlimit:10;}
	.st15{fill:none;stroke:#D9DCE1;stroke-width:2;stroke-miterlimit:10;}
	.st16{fill:none;stroke:#56AAFF;stroke-width:9.9179;stroke-linecap:round;stroke-miterlimit:10;}
	.st17{fill-rule:evenodd;clip-rule:evenodd;fill:#56AAFF;}
	.st18{fill-rule:evenodd;clip-rule:evenodd;fill:#D9DCE1;}
	.st19{fill-rule:evenodd;clip-rule:evenodd;fill:#0478ED;}
	.st20{fill:none;stroke:#FFFFFF;stroke-width:4;stroke-miterlimit:10;}
	.st21{fill:none;stroke:#0478ED;stroke-width:2;stroke-miterlimit:10;}
	.st22{fill:none;stroke:#FFFFFF;stroke-width:2;stroke-linecap:square;stroke-miterlimit:10;}
	.st23{fill:#FEFEFE;}
	.st24{fill:none;stroke:#FFFFFF;stroke-width:2;stroke-linecap:round;stroke-linejoin:round;stroke-miterlimit:10;}
	.st25{fill:none;stroke:#D9DCE1;stroke-width:3;stroke-linecap:round;stroke-linejoin:round;stroke-miterlimit:10;}
	.st26{fill:none;stroke:#56AAFF;stroke-width:4;stroke-linecap:square;stroke-miterlimit:10;}
	.st27{fill:none;stroke:#56AAFF;stroke-width:4;stroke-miterlimit:10;}
	.st28{fill:none;stroke:#0478ED;stroke-width:2;stroke-linecap:square;stroke-miterlimit:10;}
	.st29{fill:none;stroke:#FFFFFF;stroke-width:3;stroke-miterlimit:10;}
	.st30{fill:none;stroke:#FFFFFF;stroke-width:4;stroke-linecap:round;stroke-miterlimit:10;}
	.st31{fill:none;stroke:#56AAFF;stroke-width:4;stroke-linejoin:round;stroke-miterlimit:10;}
	.st32{fill:none;stroke:#0478ED;stroke-width:2.8187;stroke-miterlimit:10;}
	.st33{fill:none;stroke:#0478ED;stroke-width:2;stroke-linecap:round;stroke-miterlimit:10;}
	.st34{fill:none;stroke:#FFFFFF;stroke-width:2;stroke-linecap:round;stroke-miterlimit:10;}
	.st35{fill:none;stroke:#FFFFFF;stroke-width:6;stroke-linecap:round;stroke-miterlimit:10;}
	.st36{fill:none;stroke:#D9DCE1;stroke-width:4;stroke-linecap:round;stroke-miterlimit:10;}
	.st37{fill:none;stroke:#FFFFFF;stroke-width:2;stroke-miterlimit:10;stroke-dasharray:4.0841,4.0841;}
	.st38{fill:none;stroke:#FFFFFF;stroke-width:2;stroke-miterlimit:10;stroke-dasharray:2;}
	.st39{fill:none;stroke:#D9DCE1;stroke-width:4;stroke-linecap:round;stroke-linejoin:round;stroke-miterlimit:10;}
	.st40{fill:none;stroke:#56AAFF;stroke-width:6;stroke-linecap:round;stroke-linejoin:round;stroke-miterlimit:10;}
	.st41{fill:none;stroke:#FFFFFF;stroke-width:2;stroke-miterlimit:10;stroke-dasharray:8,5;}
	.st42{fill:none;stroke:#56AAFF;stroke-width:3;stroke-miterlimit:10;}
	.st43{fill:none;stroke:#FFFFFF;stroke-width:2;stroke-miterlimit:10;stroke-dasharray:7.5556,4.7222;}
	.st44{fill:none;stroke:#56AAFF;stroke-width:2;stroke-miterlimit:10;}
	.st45{fill:none;stroke:#D9DCE1;stroke-width:10.4595;stroke-linecap:square;stroke-miterlimit:10;}
	.st46{fill:none;stroke:#56AAFF;stroke-width:10.4595;stroke-linecap:square;stroke-miterlimit:10;}
	.st47{fill:none;stroke:#56AAFF;stroke-width:2;stroke-linecap:square;stroke-miterlimit:10;}
	.st48{fill:none;stroke:#D9DCE1;stroke-width:10.7485;stroke-linecap:round;stroke-miterlimit:10;}
	.st49{fill:none;stroke:#0478ED;stroke-width:3.587;stroke-miterlimit:10;}
	.st50{fill:none;stroke:#D9DCE1;stroke-width:3.587;stroke-miterlimit:10;}
	.st51{fill:none;stroke:#0478ED;stroke-width:2.5;stroke-miterlimit:10;}
	.st52{fill:none;stroke:#56AAFF;stroke-width:4;stroke-linecap:round;stroke-linejoin:round;stroke-miterlimit:10;}
	.st53{fill:none;stroke:#D9DCE1;stroke-width:2.852;stroke-miterlimit:10;}
	.st54{fill:none;stroke:#D9DCE1;stroke-width:12.5873;stroke-linecap:round;stroke-miterlimit:10;}
	.st55{fill:none;stroke:#56AAFF;stroke-width:2;stroke-linecap:round;stroke-miterlimit:10;}
	.st56{fill:none;stroke:#D9DCE1;stroke-width:2;stroke-linecap:square;stroke-miterlimit:10;}
	.st57{fill:none;stroke:#D9DCE1;stroke-width:3;stroke-linecap:round;stroke-miterlimit:10;}
</style><path class="st0" d="M19,39h-6c-0.6,0-1,0.4-1,1v14c0,0.6,0.4,1,1,1h6c0.6,0,1-0.4,1-1V40C20,39.4,19.6,39,19,39z"/><path class="st0" d="M30,34h-6c-0.6,0-1,0.4-1,1v19c0,0.6,0.4,1,1,1h6c0.6,0,1-0.4,1-1V35C31,34.4,30.6,34,30,34z"/><path class="st0" d="M41,22h-6c-0.6,0-1,0.4-1,1v31c0,0.6,0.4,1,1,1h6c0.6,0,1-0.4,1-1V23C42,22.4,41.6,22,41,22z"/><path class="st0" d="M52,28h-6c-0.6,0-1,0.4-1,1v25c0,0.6,0.4,1,1,1h6c0.6,0,1-0.4,1-1V29C53,28.4,52.6,28,52,28z"/><line class="st26" x1="11" x2="54" y1="55" y2="55"/><g><g><path class="st2" d="M23.3,26.6V30H21v-3.4c-2.5-0.3-4.3-1.1-5.8-2.6l2.1-2.5c1.4,1.3,3.2,2,4.5,2c1.3,0,2.1-0.6,2.1-1.6    c0-1.1-0.8-1.6-2.9-2.2c-2.9-0.9-5.4-1.9-5.4-5.1c0-2.6,1.7-4.5,5.3-4.9V7h2.3v2.8c1.3,0.3,2.9,1.1,4,2l-2,2.5    c-1.4-1-2.8-1.4-3.9-1.4c-1.3,0-2,0.5-2,1.4c0,0.9,0.9,1.4,2.7,2c3.4,1,5.6,1.9,5.6,5.3C27.7,24.3,25.9,26.2,23.3,26.6z"/></g></g></svg>